<svg xmlns="http://www.w3.org/2000/svg" viewBox="0 0 601.13 492.89"><defs><style>.cls-1{fill:#d6d6d6;}.cls-2{fill:#98d3e1;}.cls-3{fill:#f2ab1c;}.cls-4{fill:#fefefe;}.cls-5{fill:#1790bf;}.cls-6{fill:#4b4d5c;}.cls-7{fill:#3c3b4d;}.cls-8{fill:#0b6aa9;}.cls-9{fill:#ccbfad;}.cls-10{fill:#0c68a6;}.cls-11{fill:#343343;}.cls-12{fill:#0a67a7;}.cls-13{fill:#09619d;}.cls-14{fill:#0b67a6;}.cls-15{fill:#eeaea5;}.cls-16{fill:#393a4f;}.cls-17{fill:#1e1f3b;}.cls-18{fill:#f5b0b3;}.cls-19{fill:#fcfdfc;}.cls-20{fill:#f4b1b4;}.cls-21{fill:#f0ac1f;}.cls-22{fill:#201f3a;}.cls-23{fill:#6d3623;}.cls-24{fill:#1f203b;}.cls-25{fill:#1e1e3a;}.cls-26{fill:#212139;}.cls-27{fill:#0e6aa8;}.cls-28{fill:#1f1d38;}.cls-29{fill:#f3b1b4;}.cls-30{fill:#1e1d37;}.cls-31{fill:#0b6aa7;}.cls-32{fill:#0f6aa7;}.cls-33{fill:#191a39;}.cls-34{fill:#ebada5;}.cls-35{fill:#f2b0b4;}.cls-36{fill:#ebada3;}.cls-37{fill:#eeaea6;}.cls-38{fill:#0e5586;}.cls-39{fill:#ebb0a6;}.cls-40{fill:#ebaca6;}.cls-41{fill:#ebb2a9;}.cls-42{fill:#f4b2b4;}.cls-43{fill:#f2b4b4;}.cls-44{fill:#e9e9ea;}.cls-45{fill:#eef4f0;}.cls-46{fill:#fbfbf9;}.cls-47{fill:#e4e4e8;}.cls-48{fill:#968fa8;}.cls-49{fill:#dfdfdf;}</style></defs><g id="Layer_2" data-name="Layer 2"><g id="Layer_1-2" data-name="Layer 1"><path class="cls-1" d="M69,269.75s1,7,2,7,18,5,18,5l-1-2Z"/><path class="cls-2" d="M110.07,86.81c-3.27-1.81-6.82-.77-10.24-.88-6-.19-12,0-18-.12C66.33,85.49,52.26,71.49,52,56c-.11-7.25-1-14.6,2.58-21.53,6-11.5,14.76-18.65,28.17-18.68q51.42-.12,102.85,0C201.9,15.77,214,25.88,217.15,42a8.25,8.25,0,0,0,.79,1.77c3.7,5.65,2,11.69,1.14,17.62a32.8,32.8,0,0,1-2.17,6.54c-7.21,12.68-17.58,20.19-32.7,19.78-3.43-.09-4.07,1.3-2.78,4.25a52,52,0,0,1,2.63,6.48c.45,1.58,1.15,3.44-.51,4.59s-3.26.22-4.64-.74a79.09,79.09,0,0,1-11.31-9c-4.33-4.37-9.26-5.82-15.29-5.65-12.31.32-24.64,0-36.95.12C113.57,87.71,111.7,88,110.07,86.81Z"/><path class="cls-3" d="M215.54,67.57c2.65-7.75,2.75-15.77,2.43-23.84,14.94-8.18,31.18-11.92,47.9-13.85,8.05-.93,16.15-1.45,24.23-2.16A12.35,12.35,0,0,1,297.76,26c14.44,1.09,28.88,2.12,42.6,7.47,10.29,4,19.39,9.66,26.39,18.25,4.56,5.59,8.29,11.67,7.66,19.4-1.9,2.76-4.85,2.5-7.63,2.58-6.94.19-13.88-.12-20.82.94a30.62,30.62,0,0,0-26,28.92c-.14,3.43.58,7-1.26,10.23-2,2.14-4.67,2.5-7.31,2.65-6.8.37-13.56,1.66-20.4,1.19a13.35,13.35,0,0,0-11.15,4.51c-5,5.32-10.64,10-16.1,14.92-1.47,1.31-3.19,3.13-5.23,1.91-2.42-1.45-1.09-3.88-.45-5.86.87-2.69,1.91-5.32,2.79-8,2.19-6.71,2.19-6.71-3.83-9.72a4,4,0,0,1-1-3.24c1.11-13.87-6.32-23.25-16.48-31.07a74.52,74.52,0,0,0-18.86-10C218.76,70.27,216.45,69.94,215.54,67.57Z"/><path class="cls-4" d="M483.9,99.74c6.71,4.77,13.89,8.67,19.27,15.44,12.61,15.85,11.39,35.52-2.35,50.19-2.36,2.51-7.15,5.07-6.91,7.18.4,3.7,3.63,7.21,6,10.53a49.89,49.89,0,0,1,6.18,11.85c-4.18-.1-6.56-3-9.5-4.43a27.18,27.18,0,0,1-7.4-5c-6-6.21-12.37-4.85-19.95-3.18-25.71,5.68-49.51,2-68.91-17.63a36.23,36.23,0,0,1-10.56-22c-1.71-1.7-1.68-3.89-1.67-6.06,0-9.69,4-17.86,10.61-24.54,16.53-16.8,37.13-22.51,60.1-20.57a68.3,68.3,0,0,1,19.38,4.41C480.43,96.74,482.51,97.72,483.9,99.74Z"/><path class="cls-5" d="M373.61,71.53c-3.15-19.2-16.35-29.29-33-36-13.29-5.33-27.35-6.83-41.52-7.43l-9-.41C296.5,17.09,306.51,11,317.87,7.85a206.18,206.18,0,0,1,112.72,0,48.78,48.78,0,0,1,25.19,16.28c9.06,11.13,11.17,32.57,0,46.52-1,2.65-3.31,3.08-5.7,3.09q-35.62.17-71.24,0C376.82,73.78,374.85,73.45,373.61,71.53Z"/><path class="cls-5" d="M215.54,67.57c12.13,3.57,23.2,9,32.19,18.15,8,8.07,11.55,17.67,9.63,29.06,1.53,3.61-.54,6.49-2.23,9.2-5.77,9.22-13.9,15.86-23.68,20.44-4.87,2.29-9.49,5.59-15.35,4.68-5.5,1.18-11,2.51-16.5,3.47-2.34.41-2.67,1.23-2,3.28a60.13,60.13,0,0,1,3.39,14c-4.71-4.13-9.6-8.07-14-12.45a11.06,11.06,0,0,0-8.78-3.53c-5,.14-10,.29-14.84-1-2.19-1.63-1.32-4-1.17-6,1.07-15-6-25.47-18.17-33a62.5,62.5,0,0,0-33.13-9.33c-3,0-6.39.9-8.88-1.9.88-6.22,4.51-11,8.06-15.9,1.65-1,3.49-.91,5.32-.91,13.82,0,27.65.1,41.47-.07a12.58,12.58,0,0,1,9,3.34C171.3,93.92,177,98.42,182.51,103l1.14-.92c-1.53-3.78-2.82-7.7-4.68-11.32-2-3.82-1.48-5.34,3.1-4.92,9.81.89,18.52-1.91,25.65-8.72C210.67,74.32,213,70.79,215.54,67.57Z"/><path class="cls-2" d="M373.61,71.53c1.8.16,3.61.45,5.42.45h70.63c2.14,0,4.34.3,6.13-1.31.43,2.24,2.35,1.91,3.89,2.33C472.17,76.38,483,88.3,483.9,99.74,472.32,95.5,460.53,92.2,448,92.89c-15.75.87-30.36,5.17-42.78,15.36-10.84,8.88-16.53,20.12-15.44,34.38-11.19-1.41-20.53,1.63-28.12,10.44a18.92,18.92,0,0,1-9.15,6.38c.54-4.21,2.62-7.54,4.05-11.08,2.11-5.22,1.88-5.56-3.69-5.57-1.32,0-2.64.08-4,.12a7.92,7.92,0,0,1-6.21.88c-13.25-3.37-21.32-12.06-25.41-24.78-.57-1.76-.77-3.6.6-5.19.21-8.43-.65-16.94,4.11-24.72,5.85-9.57,13.89-15.4,25.17-16.65C356,71.48,364.85,72.9,373.61,71.53Z"/><path class="cls-3" d="M102,102.71c13.26-.41,26.27.69,38.3,6.93,12.36,6.41,21.56,15.43,23.87,29.91.72,4.51-.13,8.93-.82,13.36-7.07,17.08-20.78,25.79-38,29.7a9.21,9.21,0,0,0-6.93,5.54c-2.1,4.34-4.49,8.53-6.85,12.73a13.89,13.89,0,0,1-4.88,5.62c-1-6.1.36-11.49.68-16.84.25-4.21-.66-5.65-5.21-6-14-1-26.48-6.31-36.48-16.41-14.49-14.63-13-37.08,3.3-50.6a57.71,57.71,0,0,1,28.3-12.76C98.86,103.64,100.59,103.79,102,102.71Z"/><path class="cls-6" d="M557.71,311.88q-5.88,38.4-11.06,76.89c-2.4,17.87,3.13,34.14,6.86,50.89,1.87,8.41,5.11,16.46,6.44,25-3.41,4.47-9,3.37-13.44,5.4-2.76-.89-3.59-3.36-4.39-5.69-6.25-18.46-12.44-36.93-18.81-55.35a21.43,21.43,0,0,1-1.19-6.87c-.17-17,2.71-33.78,4.55-50.64-1.27,7.26-4.9,13.69-8.38,20C504.8,395.8,500,422.36,496.8,449.44c-.86,7.27-1.68,14.55-2.83,21.79-.32,2-.52,4-2.09,5.48a3.78,3.78,0,0,1-1.37.73c-5.23.18-10.27-1.35-15.43-1.76,0-13.69,3.12-27,5-40.46,5.13-36.09,11.4-72,20.85-107.25,1.89-7,4.13-14,6.21-20.94,1.27-.57,2.23.17,3.22.76,13.17,8,27.31,7,41.59,4.41C553.9,311.85,555.72,310.66,557.71,311.88Z"/><path class="cls-7" d="M210.89,470c-2-.09-4,0-6-.29-2.91-.42-4.86-1.77-4.84-5.19.16-24.46-1.61-49,1-73.35,2.23-20.45,6.19-40.71,9.42-61,.72-4.56,1.59-9.1,2.4-13.65,1.5-.95,2.83-.13,4.23.36,4.22,1.45,5.9.69,7.73-3.5.65-1.49.8-3.25,2.38-4.23,5.65-.85,10.82,1.68,16.26,2.27,4.18,3,8.62,5.64,11.32,10.24,1.8,2.54,4.43,3.35,7.34,3.53,1.29-.38,2.09-2.27,3.83-1.25.59,10.67-1.34,21.17-2.1,31.75-1.72,23.72-.56,47.48-1.18,71.21q-.45,17.17-.86,34.36c0,1.5.06,3-.94,4.27-2.14,2.75-5.1,2.93-8.21,2.61-7.24-.35-10.17-4.4-10.15-11.36,0-2.29-.57-4.62-.55-6.95.1-19.13-1.48-38.2-2.19-57.3a290.69,290.69,0,0,0-4.26-38.14,13.49,13.49,0,0,1,0-6.41c-3.75,12.59-8.1,25-11.07,37.82a174.6,174.6,0,0,0-3.68,27.61c-1.08,16-.64,31.93-.88,47.89-.05,3.06-.5,6-3.1,8.1C215,470.3,213.09,471.57,210.89,470Z"/><path class="cls-8" d="M557.71,311.88a57.42,57.42,0,0,1-46.13-1,12.55,12.55,0,0,1-4.41-3.81c.51-2.45,1-4.9,1.54-7.35,3.19-8.76,4.12-18,5.39-27.11.72-5.16-2-8.46-5.25-11.68-2.94-.37-5,1.48-7.21,2.9-6.84,4.4-13.16,9.61-20.42,13.37-8.56,4.42-14.67,3.32-20.74-4.08C451.39,262,447.79,248.47,444,235c-.59-2.1,1.13-2.91,2.05-4.2,1.3-3,3.82-3.93,6.85-4,2.75-.74,3.33,1.14,3.94,3.15A190.72,190.72,0,0,0,465,252.41a64.63,64.63,0,0,0,3.33,6.66c3.77,6.37,5.76,6.78,11.67,2.14,9.14-7.17,16.67-16.23,26.41-22.73,5.51-3.68,10.87-7.64,17.64-8.8,4.09-2.85,8-2.54,11.78.65,10.11,3.92,17.24,10.77,19.29,21.59,3.27,17.34,4.46,34.94,5.51,52.53C560.81,307.33,560.63,310.17,557.71,311.88Z"/><path class="cls-9" d="M490.12,476.83a3.93,3.93,0,0,1,.84-.18c2.3,3.72,5.85,4,9.82,4.07,9.06.15,18.15-.89,27.17.62,3.82,4.4,8.13,4.47,13.06,1.82,1.73-.93,3.93-2,6-.24,1.49,1.05,3.21.75,4.85.72,15.8-.29,31.53,1,47.27,2.07a2.49,2.49,0,0,1,2,1.44,80.62,80.62,0,0,1-9,1.43c-9.45.49-18.92.74-28.38,1.08-20.62.73-41.28.39-61.87,1.29-21.15.92-42.27.16-63.39.73-72.59,1.93-145.21,1.07-217.8.7-27.79-.14-55.61.14-83.36-1-16-.65-32,0-47.9-.83-20.91-1-41.86-1.19-62.77-2.12C17.81,488,8.81,488,0,485.53a633.75,633.75,0,0,1,68.33-2.92c2.22-.95,4.16.39,6.22.78,3.14.59,6.23,1,8.6-1.89,2.92-1.94,6.25-1.78,9.51-1.77,4.25,0,8.5.2,12.25-2.32,2.46,5.21,6.59,6.15,11.76,4.69a8.72,8.72,0,0,1,4.45,0c6.83,1.73,13.34-.28,19.92-1.54,1.48,1.54,3.4,1,5.16,1h36.71c2.81,2.69,6.2,3.27,10,3.12q7.69-.32,15.4,0c4.3.19,7.19-.79,7-5.83a4.74,4.74,0,0,1,1-2.78c.21-.26.64-.64.72-.55,3.23,3.15,7.89,3.07,11.58,5.17,1,4.09,3.84,5.09,7.77,5.12,6.64.06,13.17-1.37,19.79-1.18,3,.08,3.52-3.35,5.94-4h58.32c2.12,0,4.36-.48,6.26,1,2.53.24,3.11-3.91,6.08-2.69,10.9-.71,21.79-.24,32.68-.26a7.16,7.16,0,0,1,4.21,1.23,3.54,3.54,0,0,1,1.22,2.09c1,5,1.88,5.48,6.82,4.16,3.86-1,6.59-3.77,9.59-6.11,7-5.47,7.26-5.46,11.78,1.58h55c2.76,2.48,6,3.14,9.65,3,6-.16,11.95-.14,17.92,0,3.73.09,6.63-.43,6.74-5.07A3.2,3.2,0,0,1,490.12,476.83Z"/><path class="cls-10" d="M105.84,300.8c4.13,5.51,5,12.21,6.51,18.62,5.45,23.53,9.38,47.29,9.81,71.52,0,1.33,0,2.66-.07,4-.21,6-.21,6-6,3.91a10.41,10.41,0,0,0-2-.31c-6,.5-12.29-.49-18,2.49-3.63,1.3-7.21,2.84-11.22,2.22-6.44-.49-13.15.19-18.7-4.22-7-3.36-14.47-3.93-22.09-3.52-1.78.09-3.65.33-5.33-.64,2.06-2.73,5.12-2,7.8-2,3.53,0,6.19-1.23,8-4.11,12.85-20.83,20.71-42.89,16.94-67.93-.61-4-2.71-7.37-3.56-11.21a3.73,3.73,0,0,1,2.9-1.25c10.41,1,20.11-1.58,29.5-5.78C102.08,301.81,103.63,300.27,105.84,300.8Z"/><path class="cls-4" d="M317.93,113.83c3.69,17.71,14.47,27.81,31,29.09-6.64,8.87-16.7,11.73-26.54,14.71-8.63,2.61-8.59.77-3.44,9.5,2.36,4,4.94,7.88,7.4,11.83.15.24.08.62.21,2-5.72-4-11.47-7-15.91-11.37-7.75-7.6-16.66-7.79-26.29-6.18-7.5,1.25-15-.26-22.36-.87-16.13-1.35-31.84-4.79-45.92-13.46,6.81-2.63,13.62-5.23,19.9-9,10-6.05,17.74-13.9,21.36-25.28,9.41,1,8.73.3,5.8,8.84a80.31,80.31,0,0,0-4,15.09c6.93-6.33,14-12.52,20.73-19a12,12,0,0,1,9.25-3.74A193,193,0,0,0,317.93,113.83Z"/><path class="cls-11" d="M338,374.78c-2.14-2.79-1.12-5.72-.14-8.47,4.48-12.57,9.22-25,13.61-37.65,1.79-5.12,2.91-10.47,4.33-15.72,4.46-2.32,7.16-6.17,9.16-10.62,2.86-1,5.68-.54,8.48.26a5.06,5.06,0,0,1,3,4.29c.5,4,2.63,4,5.49,2.39,3.73-2.15,7.51-4.21,10.75-7.11,1.46-1.31,2.82-2.85,5-2.92a3.2,3.2,0,0,1,1.32.58,3.57,3.57,0,0,1,.83,1.17c.63,1.91-.2,3.56-.91,5.25-2.15,5.11-2.13,5.13,3.05,7.07a4.37,4.37,0,0,1,2,1.36c3.48,8.65,2,17.25-.28,25.84-1.22,4.65-2.43,9.3-3.53,14-1.24,5.24-1.62,10.35.82,15.54,3.76,7.95,2.94,9.09-6,9.9-4.32,3.3-8.94.8-13.43.66a19.83,19.83,0,0,1-5.26-1.33c-5.34-1-10.25-3.69-15.79-3.88-5.29.19-10.49,1.2-15.76,1.62C342.17,377.19,339.82,376.88,338,374.78Z"/><path class="cls-4" d="M105.84,300.8c-6.17,5.89-14.25,7.18-22.08,8.83-4.12.86-8.44,1.73-12.68.19-4.42-3.73-5.5-8.65-5-14.12,1.34-5.64,2.89-11.23,3.92-16.92.52-2.85,1.54-3.23,4-2.28,4.59,1.79,9.24,3.41,14,4.8a70.11,70.11,0,0,0-12.84-6.73c-4.91-2.07-8.38-5-9.45-11a116.64,116.64,0,0,1-1.54-21.76c4.12-4.83,10.18-5.92,15.66-8.13a8,8,0,0,1,3.5,1.36c4.66,2.56,4.67,2.56,6.6-2.26,1.48-3.64,3.5-1.27,5.12-.3,8.12,4.86,16.15,9.88,24.24,14.79,5.77,3.51,6.58,3.34,8.87-2.85,2.18-5.91,3.87-12,5.91-18,.6-1.76.48-4.13,3-4.7,3.25-1.37,5,0,5.89,3.14a5.51,5.51,0,0,1,1.36,5.86c-2.21,7.49-4,15.09-7.2,22.28-3.28,7.46-6.54,9.15-14.55,7.42A73.8,73.8,0,0,1,107.22,255c-1.32,1.18-.32,1.94.19,2.68,2.34,3.43,2.21,6.11-2,8a11.68,11.68,0,0,0-3.52,2.72c-3.2,3.34-2.56,6.45,1.81,8.05,7.34,2.68,14.77,5.13,22.15,7.72,1.83.64,4,.91,4.2,3.56,1.18,2.88.74,5.26-2.07,6.94-1.11,1.6-2.3,1.81-4.19,1-5.6-2.48-11.35-4.6-17-7-3.06-1.33-4.24-.21-3.67,2.69C103.79,294.52,104.93,297.64,105.84,300.8Z"/><path class="cls-8" d="M281.08,276.5c-5.29-10.34-10.15-20.9-15.18-31.37-.9-2.68-3.26-3-5.54-3.39-6.79-1.26-13.76-1.51-20.36-3.82a4.17,4.17,0,0,0-4.6.91c-1.45,2-1.5,4.41-1.34,6.72.89,12.75.95,25.6,4.58,38,2.21,7.52,4.08,15.08,3.44,23-.18,2.17.15,4.36,2,5.93a18.64,18.64,0,0,0,6.41,6.47c1.5.83,3.48,1.2,3.59,3.49,2.74,2.09,5.63,3.88,9.2,4.14l2.76-2.74c5.12-11.54,10.17-23.1,15.39-34.6A13.62,13.62,0,0,0,281.08,276.5ZM266.23,294c-2.09-7.51-3.76-14.19-3.32-21.46,6.94,6.11,7.84,11.34,3.32,21.46Z"/><path class="cls-8" d="M227.22,309.63a33.62,33.62,0,0,1-.49,4.36c-1.38,5.61-6.09,7.38-10.86,4.19-.94-.62-2-1.14-2.93-1.71-4.82-9.79-3.38-20.15-2.46-30.36.7-7.76,2.25-15.43,3.34-23.16.23-1.59.64-3.33-1-4.91-3,2.64-4.54,6.36-6.89,9.43-3.24,4.24-6.37,8.55-10.63,11.85-5.2,4-9,3.46-12.41-2.13-5.46-8.85-6.76-19-8.71-28.94-.58-2.93-.46-6-1.38-8.83-1.2-3.61,0-6.1,2.44-8.44a5.57,5.57,0,0,1,5.87-3.9c3.44-1.11,3.46,1.72,3.89,3.63,1.84,8.09,3.42,16.24,5.32,24.32.37,1.59.31,4.26,2.47,4.31,1.66.05,2-2.39,2.7-3.85,4.13-8.53,8-17.21,15-23.93a42,42,0,0,1,12.22-8.41c1.32,3,.12,5.69.59,8.28A5.64,5.64,0,0,1,225,236c-.71,9.43,2.05,18.39,3.6,27.52a17.83,17.83,0,0,1,.42,4.94,170.61,170.61,0,0,0,0,34.71C229.24,305.45,229,307.8,227.22,309.63Z"/><path class="cls-12" d="M397.91,300a73.4,73.4,0,0,1-16.1,11.24c-5.29,2.67-6.39,2-6.91-4a27.21,27.21,0,0,0-.72-3.34c-2.11-3.61-2.2-7.61-2.08-11.58a47.69,47.69,0,0,0-2.46-17.58,25.15,25.15,0,0,1,1-19.83c2-4.2,3.17-8.7,4.9-13a7.52,7.52,0,0,1,2.18-3.43,3.45,3.45,0,0,1,3.34.17c4.48,3,10,1.15,14.7,3.35,3.91,4.8,9.35,7.9,13.64,12.28,17.09,17.43,16,15.2,5.89,35.41-2.6,5.19-5.68,10.13-8.55,15.18-3.87,1-6-1.4-7.85-4.17l.07.08c-.4-3.63,1-6.81,2.52-9.94a84.65,84.65,0,0,0,5.7-13.84c1.36-4.61-4-12.51-8.76-13.22-2.19-.33-3.13,1.16-3.65,2.69-3,8.71-4.91,17.35,1.55,25.59C398.06,294.29,400.51,296.75,397.91,300Z"/><path class="cls-13" d="M68.08,309.87c2.43,1.1,3.62,2.86,4.22,5.59a82.92,82.92,0,0,1-1.54,41.47A150.24,150.24,0,0,1,59,385.23c-3.34,6.41-7.17,11-15.23,9.51a23.22,23.22,0,0,0-5,.12,17.14,17.14,0,0,1-2.48-.18c-5.66-1.24-6.07-2.33-2.53-6.88C46.8,371,53.59,351.72,57.12,331c1.09-6.45,2.63-12.82,3.88-19.25.32-1.65.64-3.21,2.16-4.21a3.74,3.74,0,0,1,4.85,2.1A1.46,1.46,0,0,1,68.08,309.87Z"/><path class="cls-14" d="M365.05,302.77c-.48,7.8-2.11,9.59-9.23,10.17-.2-.26-.6-.54-.57-.77,1.44-12.3-2.64-23.62-6.18-35-2-6.38-1.54-12.69.09-19.12s.62-7.28-6.08-5.69c-5.64,1.33-11.3,2.63-16.93,4-4.08,1-7.65-.19-9.5-3.69-6.51-12.34-7.18-25.52-4.67-39,2.78-2.22,5-.93,7,1.15,1.75,1.39,1.83,3.33,2,5.37.55,6.27,1.31,12.53,1.94,18.8.37,3.73,1.87,5.13,5.93,4.14,8.68-2.12,17.28-4.66,26.2-5.78a76.58,76.58,0,0,1,10.92-.51,3.08,3.08,0,0,1,1.32,2.13c-.54,7.48-1.57,14.8-5.47,21.48-2.77,4.73-2.4,9.92-1.07,15,1.8,6.92,4.12,13.71,5.28,20.79C366.45,298.51,367.15,300.87,365.05,302.77Z"/><path class="cls-15" d="M338,374.78c5.78,1.13,11.39-.43,17.07-1a52.61,52.61,0,0,1,5.89,0c1.41,2.86-.18,5.19-1.5,7.45a45.29,45.29,0,0,0-4.84,12.5c-4.83,20.22-9.29,40.53-14,60.77-1,4.34-1.41,8.91-4.08,12.74a22.55,22.55,0,0,1-14.3,5.05c-2.28,0-5.28.14-5-3.71,12.58-6.93,10-19.76,11.61-30.73,2.45-17.14,4-34.42,6.12-51.6C335.49,382.39,337,378.61,338,374.78Z"/><path class="cls-15" d="M376,377.77c6.34.75,12.6,2.17,19,2.14-.34,3.63-.64,7.26-1,10.88-2.19,20.43,1.77,40.74,1.22,61.16-.11,3.88.79,7.9.85,11.89-.83,7.09-5.55,11.3-11.32,14.34-2.67,1.41-5.21.36-5.48-3.34a3.5,3.5,0,0,1,.58-1.88c6.13-6.91,4.61-14.41,2.48-22.42a244.48,244.48,0,0,1-8.25-65.37C374.08,382.58,373.61,379.78,376,377.77Z"/><path class="cls-16" d="M395.8,242c-6.37,2.09-12.1.67-17.38-3.17-5.37-2.11-6.9-7.26-7.92-11.86-1.26-5.74-5.48-9-8.43-13.39-1.94-4.5-.81-7.37,3.52-8.93a15,15,0,0,1,16.5,5,37.1,37.1,0,0,1,4.12,6.77c1.4,2.93,3.14,4.09,6.62,3.52a11.12,11.12,0,0,1,11.25,5c2.33,3.47,5.14,4.16,8.86,3.93a26,26,0,0,1,18.49,6c1.9,1.54,4.11,3.41,2.7,6.27s-4,1.24-6.1.72c-3.69-.91-7.23-2.55-11.15-2.22a16.71,16.71,0,0,0-3.92.5C405.51,242.65,402.5,243,395.8,242Z"/><path class="cls-17" d="M79.83,234.51a76.07,76.07,0,0,1-15.75,7.29c-7.56,1.12-15.09,2.74-22.78,1.06a30.57,30.57,0,0,1-4.8-1.27c-2.73-1.11-3.47-3-1.51-5.47,2.34-2.92,4.95-5.45,9.09-5.31,2.15.07,4.21-.09,4-3-.36-4.75,2.43-7,6.55-7,8.58.14,12.66-4,15.14-12,2.23-7.22,7.57-9.3,15.18-8,4,.68,7.21,2.53,8.08,7-.53,3.39-1.7,6.41-5.21,7.76-1.55.59-1.88,1.51-1.65,3.06.49,3.32-.22,6.61-.79,9.85C84.82,231.45,83.49,234.11,79.83,234.51Z"/><path class="cls-18" d="M95.93,399.43c5.92-3.14,12-3.75,18.17-.9-.35,13.88,1.74,27.59,2.75,41.38.62,8.39,1.56,16.77,2,25.14.27,5.81,2.68,8,7.78,8.73a13.19,13.19,0,0,1,2.78,1c-2.78,3.52-8.07,4.83-13.4,2.94a28.59,28.59,0,0,1-9.2-4.84c-3-22.5-9.22-44.4-12.25-66.9C94.2,403.64,94.28,401.37,95.93,399.43Z"/><path class="cls-19" d="M227.22,309.63c-.15-12.44-2-24.84-.39-37.31.82-6.34-.61-12.6-2.23-18.69a53.5,53.5,0,0,1-1.29-22.2c1.92-2.67-.39-6.19,1.75-8.82,2.18-.27,2.16,2.11,3.48,2.88,3.33,3.8,7.31,7.22,7.68,12.8-.22,19,1.59,37.67,7.23,55.93,1.82,5.9.45,12.2.63,18.31C238.24,312.87,232.73,311.27,227.22,309.63Z"/><path class="cls-20" d="M66.18,399l18.93,2.8c2,2.27.88,4.75.38,7.13-2.94,13.81-6.84,27.39-9.85,41.19-1.67,7.63-4.07,15.16,0,22.77a3,3,0,0,1-.08,2.43c-2.75,2.57-5.41.86-7.57-.65-4.78-3.34-7.23-8.23-7.86-14,3.37-7.66,3.72-15.94,4.92-24C66.93,424.14,65.67,411.55,66.18,399Z"/><path class="cls-21" d="M236.22,238.29c-3.47-3.57-4.66-9-9.23-11.66-1.19-3.29.52-4.08,3.36-3.9,3.86,1.26,4.73,5.72,8.08,7.53,2.88,2.81,6.37,3.63,10.32,3.59s8.23-.8,11.85,1.87c8.09.55,13.62,4.88,18.39,11.26,6.48,8.64,16.19,11.11,26.45,11.85,4,.28,8,.22,11.79,1.66,1.76.67,4.22,1.47,3.74,4s-2.7,3.28-5,3.21c-7.2-.19-14-2.51-21.06-3.72-8.7-1.5-15.09-6.46-20.85-12.73-2.29-2.5-4.3-5.6-8.15-6.11-3.82-1.81-8-1.81-12.07-2.36C247.77,242,241.71,241.27,236.22,238.29Z"/><path class="cls-22" d="M262.06,480.66c-.29,4.83-2.6,6.65-7.64,6.42-7.25-.34-14.53.29-21.8.3-4.9,0-5.91-1.73-4.26-6.53.83-1.71,2.53-2,4.11-2.42,5.31-1.38,10.52-2.8,13.94-7.71,1.26-1.8,3.54-1.59,5.51-1.5s3.94-.43,5.91-.53a3.91,3.91,0,0,1,2.2.93C263.9,472.71,261,477,262.06,480.66Z"/><path class="cls-23" d="M522.28,208.62c-2.53-3.78-1.63-7.94,2.2-10.16.27-.16.55-.31.83-.44,3,4.58,6.39.28,9.56.54a2.53,2.53,0,0,1,.94.26c4.64,2.22,7.69,11.94,4.75,16.11-2.3,3.26-1.18,7.55-3.77,10.58-3.49,3-7.38,2-8.19-2.73-.67-4-1.79-7.23-4.61-10.09A6.71,6.71,0,0,1,522.28,208.62Z"/><path class="cls-24" d="M547,482.92c-3.56,1.24-7.16,2.37-10.66,3.75-4.14,1.62-6.73.73-7.32-4a4,4,0,0,1,2.94-3.6c5.59-2.13,10.32-5.59,14.92-9.3a3.33,3.33,0,0,1,3.5-2.89c3.37-.11,6.37-1.6,9.58-2.23a24.15,24.15,0,0,1,1.86,2.93c3.53,7.71,3,9.05-5,11.85Z"/><path class="cls-25" d="M217.24,475.68c-.75,12.79.8,11.11-12,11.23-5.63,0-11.27-.14-16.9.07-4,.15-6.11-1-5.41-5.35,1.13-1.33,2.75-.82,4.17-1.1,5.67-1.17,12.13-.75,14.88-7.68.22-.56,1.36-.75,2.08-1.11,4.09.76,8-.88,12-.93C218.24,472,218.66,473.61,217.24,475.68Z"/><path class="cls-26" d="M490.12,476.83c.37,10.09.37,10.09-9.37,10-7-.05-14-.19-21-.11-3.61,0-5.8-1.12-5.75-5.05,1.2-2.49,3.51-1.86,5.59-2.08,5.33-.57,11-.09,15.46-3.93.93-.57,1.37-2.2,2.74-1.75C481.85,475.25,486.28,474.77,490.12,476.83Z"/><path class="cls-27" d="M379.81,475.88c2.63,3.68,5,.92,7.05-.55,4.1-2.93,6.35-7.48,9.19-11.49,4.16,2.92,5.28,6.83,3.75,11.59a12.2,12.2,0,0,0-.78,6.24c-.27,1.22-.54,2.43-.79,3.54-1.34.11-1.25-.72-1.39-1.28-.58-2.32.48-5.83-2.06-6.65-2.3-.74-4,2.33-5.95,3.81-4.16,3.24-8,6.81-13.65,7.48-6.36.76-7.38-.46-5.07-6.67C372.12,477.92,375,475.26,379.81,475.88Z"/><path class="cls-28" d="M107.13,472.61c1.88.48,4.11.46,5.58,1.52,5.51,4,11,2.93,16.66.68,4.31,1.08,9.95-.49,11.67,5.8-4.46,4.55-10.16,4.5-15.83,4-4.43-.4-8.66-.89-13.22,0-6.59,1.23-7,.41-7.09-6.91C103.87,475.19,104,473.24,107.13,472.61Z"/><path class="cls-29" d="M362.07,213.6c2.33.12,4.17,1,4.88,3.4.6,2,.73,4.53,3.74,1.73.72-.68,2.13.66,1.71,1.59-3.32,7.35,2.52,11.82,5.26,17.26.22.44.5.85.76,1.27l-1.28,2.64c-2,1.72-2.21,4.32-3.08,6.57-.61,1.59-1.11,3.26-3.14,3.25s-2.79-1.47-3.57-3c-1.58-3.07-.74-6.4-1.11-9.6-.07-.64-.15-1.28-.22-1.92,1.87-2.9,4.29-6-2.3-5.3a2.2,2.2,0,0,1-2.53-1.81,2.14,2.14,0,0,1,0-.62c.24-4.36-2.78-8.95.9-13.13C362.46,215.51,362.09,214.4,362.07,213.6Z"/><path class="cls-30" d="M60.16,460.66c1.41,1.58,3.05,3.07,3.52,5.21,1.34,6.2,5.68,8.74,11.41,9.71,4.5.34,6.64,3.23,7.78,7.19.46,2.87-1.42,3.21-3.54,3.24-4,.07-7.54-1.62-11-3.4-3.53-3.52-6.62-7.25-11.63-9.33-6.15-2.55-6-6.62-.39-10.53A37.66,37.66,0,0,1,60.16,460.66Z"/><path class="cls-31" d="M260.6,235.72c-4.45.15-8.91.41-13.36.43a12.82,12.82,0,0,1-10.65-5.28c-1.32-4.06-3.1-8.15.59-12C248.42,219.72,256.29,225.25,260.6,235.72Z"/><path class="cls-32" d="M317.27,468.62c1.74,3.37,4.77,2.11,7.33,1.83,4.11-.44,7.68-2.65,11.46-4.17,3.59,3.19,3.15,8.42-1,11.69a10.38,10.38,0,0,1-4.07,1.81l-2.67,3.33c-.46.58-.81,1.72-1.72,1.15-1.07-.67.18-1.7,0-2.59,1.32-1.55,2.78-3.64,1.85-5.28s-3.31-.31-5.06-.18c-6.24.47-12.56,1.84-18.4-1.79-1.23-.77-3-1.28-2.66-3.15a3.74,3.74,0,0,1,3-3.06C309.32,467.46,313.38,466.19,317.27,468.62Z"/><path class="cls-33" d="M222,199c-2.1-1-3.83-2.24-3-4.9s3.61-.86,4.8-1.58c4.39-2.68,8.3.41,12.4.26a3.5,3.5,0,0,1,3.4,1.53,12.38,12.38,0,0,1-3.66,17.12c-.31.2-.62.38-.94.55C229.69,208.63,224.86,204.81,222,199Z"/><path class="cls-34" d="M222,199c2.9.78,3.65,4.78,7.47,4.69,1,0-1.5,2.17-1,3.78.15.08.55.45.69.37,5.21-3.22,5.39.69,5.88,4.14-2,2.52,1,4.36.9,6.63a5.58,5.58,0,0,1-5,5.21c-2.34-.47-3.81.25-3.92,2.84l-1.93-4C219.4,215.33,217.11,207.61,222,199Z"/><path class="cls-35" d="M79.83,234.51c5.06-5.39,6.7-11.38,3.21-18.27-.71-1.41-.11-2.69,1.22-2.36,5.44,1.33,6.37-3.38,8.75-6.15,2.45,3.54,3.67,7.6,4.75,11.68.69,2.62.48,4.87-3.09,5.35-4.69.62-5.63,2.37-4.74,8-.12,2.23,2.58,4.89.26,6.5s-4.56-1-6.65-2.19C82.25,236.29,81.07,235.36,79.83,234.51Z"/><path class="cls-36" d="M522.28,208.62c1.86.75,3.77,1.43,3.34,4.08-.19,1.2.49,2.09,1.61,1.89,4.4-.8,4.16.81,2.43,3.94-1.4,2.54.31,4.73,1.82,6.65s3.47,1.31,5.31.33c-.32,1.61-.63,3.21-.95,4.82l-11.78-.65c0-1.6,1.9-4.34-2.27-3.23-1.79.47-2.7-1-2.76-2.74C518.85,218.42,518.35,213,522.28,208.62Z"/><path class="cls-37" d="M181.07,227a19.45,19.45,0,0,1-5.87,3.89c-3.71-4.42-6.86-9.37-12.29-12.11-1.3-.65-3.13-1.86-2.21-3.92s2.72-2.3,4.65-2.15c4.87.36,8.61,4.22,13.6,4.4,1.05,0,1.14,1.55,1.06,2.52C179.81,222.26,180.64,224.64,181.07,227Z"/><path class="cls-38" d="M508.85,260.89c5,1.19,7.81,3.9,7.14,9.46-1.21,10.09-1,20.5-7.28,29.33C510.61,286.76,510.1,273.83,508.85,260.89Z"/><path class="cls-39" d="M452.89,226.83l-6.86,4a27.38,27.38,0,0,0-2.09-5c-2.49-3.72-5-7.05,1.73-9.16,2.05-.64,1.34-3.15,1.09-4.9s-1.51-3.4.49-5.34C452.07,212.52,449.66,220.51,452.89,226.83Z"/><path class="cls-40" d="M398.93,300.72c3.09.5,4.67,3.84,7.86,4.17l-.59.75c5.72,4.58-.1,6.35-2.18,9-.82.06-1.63.17-2.45.16-5.67,0-7.43-2.77-5-7.83C397.55,305,399.37,303.27,398.93,300.72Z"/><path class="cls-41" d="M319,214.79l-7-1.15c-1.1-3.93-4.37-6.06-7.15-8.61-.7-.64-1.77-1.39-1.2-2.46s1.71-.55,2.64-.24c4.18,1.4,7.54,4.81,12.34,4.78,1.42,0,1.34,1.63,1.17,2.81Z"/><path class="cls-42" d="M143,224.83c-1.89-1.19-3.61-2.69-5.89-3.14-.49-2.72.92-4.82,2.53-6.66s4-2.94,6.63-1.59c3.26,1.7.85,3.65-.07,5.26C145,220.71,146.18,223.92,143,224.83Z"/><path class="cls-43" d="M128,294.67l2.07-6.94c3.6-1.59,6.27,2.73,10,1.55,1-.31.68,1.72.11,2.79C137.9,296.36,133.21,297.38,128,294.67Z"/><path class="cls-44" d="M68.08,309.87l-4.92-2.31c-.65-4.34,1.35-8,2.87-11.86q2.52,7.05,5,14.12Z"/><path class="cls-45" d="M230.91,223.79a17.62,17.62,0,0,1,5-5.21l1.25.33q-.3,6-.59,12C233.85,229.19,232.45,226.43,230.91,223.79Z"/><path class="cls-46" d="M260,469.62l-1.88.19c-2.09.7-4.25.26-6.37.34-1.47.05-3.26.23-3.29-1.94s1.68-2,3.21-2a5.06,5.06,0,0,1,1.43.34l7.83-1.05Z"/><path class="cls-47" d="M215.11,471.53c-3.67,1.27-7.33,2.94-11.07.21,1.87-2.19,4.84-.09,6.85-1.74l5.13-1.33C217.1,470,216.37,470.88,215.11,471.53Z"/><path class="cls-48" d="M254.08,322.49c3.07,1.38,6.13,2.77,9.2,4.14C259.15,327.63,256.24,325.9,254.08,322.49Z"/><path class="cls-19" d="M366.24,238.73c.94,3.16,1.87,6.32,2.83,9.47.29,1,.67,2,1.79,2.16,1.5.16,1.69-1.19,2.24-2.22,1.23-2.28.47-5.79,4-6.65a65.8,65.8,0,0,1-4.8,14.11c-3.1,6.42-3,12.79-.63,19.29,3.46,9.45,2.63,19.26,2.47,29-3.11.12-6.22.28-9.13-1.14-.33-8.37-2.91-16.27-5.42-24.12s-2.75-15.12,2-22.28C365.18,251.11,364.58,244.58,366.24,238.73Z"/><path class="cls-49" d="M92.23,270.92c-12.89-6.63-13.73-7.61-12.42-15C81.79,263.41,87.56,266.65,92.23,270.92Z"/></g></g></svg>