<svg width="602" height="493" viewBox="0 0 602 493" fill="none" xmlns="http://www.w3.org/2000/svg">
<path d="M69 269.75C69 269.75 70 276.75 71 276.75C72 276.75 89 281.75 89 281.75L88 279.75L69 269.75Z" fill="#D6D6D6"/>
<path d="M110.07 86.81C106.8 85 103.25 86.04 99.8301 85.93C93.8301 85.74 87.83 85.93 81.83 85.81C66.33 85.49 52.26 71.49 52 55.98C51.89 48.73 51.0001 41.38 54.58 34.45C60.58 22.95 69.34 15.8 82.75 15.77C117.03 15.69 151.313 15.69 185.6 15.77C201.86 15.77 213.95 25.88 217.11 41.98C217.303 42.599 217.568 43.1931 217.9 43.75C221.6 49.4 219.9 55.44 219.04 61.37C218.548 63.6201 217.821 65.8122 216.87 67.91C209.66 80.59 199.29 88.1 184.17 87.69C180.74 87.6 180.1 88.99 181.39 91.94C182.411 94.0385 183.29 96.2034 184.02 98.42C184.47 100 185.17 101.86 183.51 103.01C181.85 104.16 180.25 103.23 178.87 102.27C174.833 99.6215 171.047 96.6089 167.56 93.27C163.23 88.9 158.3 87.45 152.27 87.62C139.96 87.94 127.63 87.62 115.32 87.74C113.57 87.71 111.7 87.96 110.07 86.81Z" fill="#98D3E1"/>
<path d="M215.54 67.57C218.19 59.82 218.29 51.8 217.97 43.73C232.91 35.55 249.15 31.81 265.87 29.88C273.92 28.95 282.02 28.43 290.1 27.72C292.398 26.3259 295.086 25.7153 297.76 25.98C312.2 27.07 326.64 28.1 340.36 33.45C350.65 37.45 359.75 43.11 366.75 51.7C371.31 57.29 375.04 63.37 374.41 71.1C372.51 73.86 369.56 73.6 366.78 73.68C359.84 73.87 352.9 73.56 345.96 74.62C338.948 75.6851 332.523 79.1503 327.782 84.4245C323.04 89.6987 320.276 96.4548 319.96 103.54C319.82 106.97 320.54 110.54 318.7 113.77C316.7 115.91 314.03 116.27 311.39 116.42C304.59 116.79 297.83 118.08 290.99 117.61C288.908 117.439 286.816 117.758 284.88 118.542C282.944 119.325 281.218 120.55 279.84 122.12C274.84 127.44 269.2 132.12 263.74 137.04C262.27 138.35 260.55 140.17 258.51 138.95C256.09 137.5 257.42 135.07 258.06 133.09C258.93 130.4 259.97 127.77 260.85 125.09C263.04 118.38 263.04 118.38 257.02 115.37C256.626 114.936 256.333 114.421 256.16 113.861C255.987 113.301 255.939 112.71 256.02 112.13C257.13 98.26 249.7 88.88 239.54 81.06C233.766 76.8389 227.414 73.471 220.68 71.06C218.76 70.27 216.45 69.94 215.54 67.57Z" fill="#F2AB1C"/>
<path d="M483.9 99.74C490.61 104.51 497.79 108.41 503.17 115.18C515.78 131.03 514.56 150.7 500.82 165.37C498.46 167.88 493.67 170.44 493.91 172.55C494.31 176.25 497.54 179.76 499.91 183.08C502.492 186.735 504.571 190.721 506.09 194.93C501.91 194.83 499.53 191.98 496.59 190.5C493.861 189.26 491.359 187.57 489.19 185.5C483.19 179.29 476.82 180.65 469.24 182.32C443.53 188 419.73 184.32 400.33 164.69C394.37 158.8 390.638 151.024 389.77 142.69C388.06 140.99 388.09 138.8 388.1 136.63C388.1 126.94 392.1 118.77 398.71 112.09C415.24 95.29 435.84 89.58 458.81 91.52C465.451 92.0371 471.98 93.5229 478.19 95.93C480.43 96.74 482.51 97.72 483.9 99.74Z" fill="#FEFEFE"/>
<path d="M373.61 71.53C370.46 52.33 357.26 42.24 340.61 35.53C327.32 30.2 313.26 28.7 299.09 28.1L290.09 27.69C296.5 17.09 306.51 11.04 317.87 7.85C354.715 -2.61016 393.745 -2.61016 430.59 7.85C440.488 10.4966 449.301 16.1926 455.78 24.13C464.84 35.26 466.95 56.7 455.78 70.65C454.78 73.3 452.47 73.73 450.08 73.74C426.333 73.8533 402.587 73.8533 378.84 73.74C376.82 73.78 374.85 73.45 373.61 71.53Z" fill="#1790BF"/>
<path d="M215.54 67.5701C227.67 71.1401 238.74 76.5701 247.73 85.7201C255.73 93.7901 259.28 103.39 257.36 114.78C258.89 118.39 256.82 121.27 255.13 123.98C249.36 133.2 241.23 139.84 231.45 144.42C226.58 146.71 221.96 150.01 216.1 149.1C210.6 150.28 205.1 151.61 199.6 152.57C197.26 152.98 196.93 153.8 197.6 155.85C199.287 160.364 200.425 165.064 200.99 169.85C196.28 165.72 191.39 161.78 186.99 157.4C185.879 156.199 184.515 155.259 182.997 154.649C181.478 154.038 179.844 153.772 178.21 153.87C173.21 154.01 168.21 154.16 163.37 152.87C161.18 151.24 162.05 148.87 162.2 146.87C163.27 131.87 156.2 121.4 144.03 113.87C134.078 107.721 122.599 104.488 110.9 104.54C107.9 104.54 104.51 105.44 102.02 102.64C102.9 96.4201 106.53 91.6401 110.08 86.7401C111.73 85.7401 113.57 85.8301 115.4 85.8301C129.22 85.8301 143.05 85.9301 156.87 85.7601C160.194 85.64 163.429 86.8409 165.87 89.1001C171.3 93.9201 177 98.4201 182.51 103.04L183.65 102.12C182.12 98.3401 180.83 94.4201 178.97 90.8001C176.97 86.9801 177.49 85.4601 182.07 85.8801C191.88 86.7701 200.59 83.9701 207.72 77.1601C210.67 74.3201 213 70.7901 215.54 67.5701Z" fill="#1790BF"/>
<path d="M373.61 71.53C375.41 71.69 377.22 71.98 379.03 71.98H449.66C451.8 71.98 454 72.28 455.79 70.67C456.22 72.91 458.14 72.58 459.68 73C472.17 76.38 483 88.3 483.9 99.74C472.32 95.5 460.53 92.2 448.04 92.89C432.29 93.76 417.68 98.06 405.26 108.25C394.42 117.13 388.73 128.37 389.82 142.63C378.63 141.22 369.29 144.26 361.7 153.07C359.363 156.071 356.174 158.295 352.55 159.45C353.09 155.24 355.17 151.91 356.6 148.37C358.71 143.15 358.48 142.81 352.91 142.8C351.59 142.8 350.27 142.88 348.91 142.92C347.989 143.482 346.964 143.85 345.896 144.001C344.828 144.152 343.741 144.084 342.7 143.8C329.45 140.43 321.38 131.74 317.29 119.02C316.72 117.26 316.52 115.42 317.89 113.83C318.1 105.4 317.24 96.89 322 89.11C327.85 79.54 335.89 73.71 347.17 72.46C356 71.48 364.85 72.9 373.61 71.53Z" fill="#98D3E1"/>
<path d="M102 102.71C115.26 102.3 128.27 103.4 140.3 109.64C152.66 116.05 161.86 125.07 164.17 139.55C164.89 144.06 164.04 148.48 163.35 152.91C156.28 169.99 142.57 178.7 125.35 182.61C123.822 182.875 122.385 183.522 121.174 184.491C119.962 185.459 119.015 186.718 118.42 188.15C116.32 192.49 113.93 196.68 111.57 200.88C110.488 203.164 108.8 205.108 106.69 206.5C105.69 200.4 107.05 195.01 107.37 189.66C107.62 185.45 106.71 184.01 102.16 183.66C88.16 182.66 75.68 177.35 65.68 167.25C51.19 152.62 52.68 130.17 68.98 116.65C77.0733 109.896 86.8596 105.483 97.28 103.89C98.86 103.64 100.59 103.79 102 102.71Z" fill="#F2AB1C"/>
<path d="M557.71 311.88C553.79 337.48 550.103 363.11 546.65 388.77C544.25 406.64 549.78 422.91 553.51 439.66C555.38 448.07 558.62 456.12 559.95 464.66C556.54 469.13 550.95 468.03 546.51 470.06C543.75 469.17 542.92 466.7 542.12 464.37C535.87 445.91 529.68 427.44 523.31 409.02C522.541 406.81 522.139 404.49 522.12 402.15C521.95 385.15 524.83 368.37 526.67 351.51C525.4 358.77 521.77 365.2 518.29 371.51C504.8 395.8 500 422.36 496.8 449.44C495.94 456.71 495.12 463.99 493.97 471.23C493.65 473.23 493.45 475.23 491.88 476.71C491.481 477.049 491.014 477.298 490.51 477.44C485.28 477.62 480.24 476.09 475.08 475.68C475.08 461.99 478.2 448.68 480.08 435.22C485.21 399.13 491.48 363.22 500.93 327.97C502.82 320.97 505.06 313.97 507.14 307.03C508.41 306.46 509.37 307.2 510.36 307.79C523.53 315.79 537.67 314.79 551.95 312.2C553.9 311.85 555.72 310.66 557.71 311.88Z" fill="#4B4D5C"/>
<path d="M210.89 470.04C208.89 469.95 206.89 470.04 204.89 469.75C201.98 469.33 200.03 467.98 200.05 464.56C200.21 440.1 198.44 415.56 201.05 391.21C203.28 370.76 207.24 350.5 210.47 330.16C211.19 325.6 212.06 321.06 212.87 316.51C214.37 315.51 215.7 316.38 217.1 316.87C221.32 318.32 223 317.56 224.83 313.37C225.48 311.88 225.63 310.12 227.21 309.14C232.86 308.29 238.03 310.82 243.47 311.41C247.65 314.41 252.09 317.05 254.79 321.65C256.59 324.19 259.22 325 262.13 325.18C263.42 324.8 264.22 322.91 265.96 323.93C266.55 334.6 264.62 345.1 263.86 355.68C262.14 379.4 263.3 403.16 262.68 426.89C262.38 438.337 262.093 449.79 261.82 461.25C261.82 462.75 261.88 464.25 260.88 465.52C258.74 468.27 255.78 468.45 252.67 468.13C245.43 467.78 242.5 463.73 242.52 456.77C242.52 454.48 241.95 452.15 241.97 449.77C242.07 430.64 240.49 411.57 239.78 392.47C239.201 379.677 237.778 366.936 235.52 354.33C235.005 352.224 235.005 350.026 235.52 347.92C231.77 360.51 227.42 372.92 224.45 385.74C222.49 394.831 221.259 404.063 220.77 413.35C219.69 429.35 220.13 445.28 219.89 461.24C219.84 464.3 219.39 467.24 216.79 469.34C215 470.3 213.09 471.57 210.89 470.04Z" fill="#3C3B4D"/>
<path d="M557.71 311.88C550.37 314.913 542.48 316.389 534.54 316.217C526.6 316.045 518.782 314.228 511.58 310.88C509.831 309.974 508.321 308.668 507.17 307.07C507.68 304.62 508.17 302.17 508.71 299.72C511.9 290.96 512.83 281.72 514.1 272.61C514.82 267.45 512.1 264.15 508.85 260.93C505.91 260.56 503.85 262.41 501.64 263.83C494.8 268.23 488.48 273.44 481.22 277.2C472.66 281.62 466.55 280.52 460.48 273.12C451.39 262.04 447.79 248.47 444 235.04C443.41 232.94 445.13 232.13 446.05 230.84C447.35 227.84 449.87 226.91 452.9 226.84C455.65 226.1 456.23 227.98 456.84 229.99C459.088 237.627 461.813 245.115 465 252.41C465.979 254.693 467.091 256.917 468.33 259.07C472.1 265.44 474.09 265.85 480 261.21C489.14 254.04 496.67 244.98 506.41 238.48C511.92 234.8 517.28 230.84 524.05 229.68C528.14 226.83 532.05 227.14 535.83 230.33C545.94 234.25 553.07 241.1 555.12 251.92C558.39 269.26 559.58 286.86 560.63 304.45C560.81 307.33 560.63 310.17 557.71 311.88Z" fill="#0B6AA9"/>
<path d="M490.12 476.83C490.393 476.74 490.674 476.679 490.96 476.65C493.26 480.37 496.81 480.65 500.78 480.72C509.84 480.87 518.93 479.83 527.95 481.34C531.77 485.74 536.08 485.81 541.01 483.16C542.74 482.23 544.94 481.16 547.01 482.92C548.5 483.97 550.22 483.67 551.86 483.64C567.66 483.35 583.39 484.64 599.13 485.71C599.56 485.756 599.97 485.913 600.321 486.165C600.671 486.418 600.95 486.757 601.13 487.15C598.16 487.801 595.155 488.278 592.13 488.58C582.68 489.07 573.21 489.32 563.75 489.66C543.13 490.39 522.47 490.05 501.88 490.95C480.73 491.87 459.61 491.11 438.49 491.68C365.9 493.61 293.28 492.75 220.69 492.38C192.9 492.24 165.08 492.52 137.33 491.38C121.33 490.73 105.33 491.38 89.43 490.55C68.52 489.55 47.57 489.36 26.66 488.43C17.81 488.04 8.81 488.04 0 485.53C22.7075 483.327 45.5174 482.353 68.33 482.61C70.55 481.66 72.49 483 74.55 483.39C77.69 483.98 80.78 484.39 83.15 481.5C86.07 479.56 89.4 479.72 92.66 479.73C96.91 479.73 101.16 479.93 104.91 477.41C107.37 482.62 111.5 483.56 116.67 482.1C118.133 481.732 119.666 481.749 121.12 482.15C127.95 483.88 134.46 481.87 141.04 480.61C142.52 482.15 144.44 481.61 146.2 481.61H182.91C185.72 484.3 189.11 484.88 192.91 484.73C198.037 484.523 203.17 484.523 208.31 484.73C212.61 484.92 215.5 483.94 215.31 478.9C215.339 477.89 215.689 476.916 216.31 476.12C216.52 475.86 216.95 475.48 217.03 475.57C220.26 478.72 224.92 478.64 228.61 480.74C229.61 484.83 232.45 485.83 236.38 485.86C243.02 485.92 249.55 484.49 256.17 484.68C259.17 484.76 259.69 481.33 262.11 480.68H320.43C322.55 480.68 324.79 480.2 326.69 481.68C329.22 481.92 329.8 477.77 332.77 478.99C343.67 478.28 354.56 478.75 365.45 478.73C366.947 478.69 368.42 479.12 369.66 479.96C370.3 480.492 370.731 481.232 370.88 482.05C371.88 487.05 372.76 487.53 377.7 486.21C381.56 485.21 384.29 482.44 387.29 480.1C394.29 474.63 394.55 474.64 399.07 481.68H454.07C456.83 484.16 460.07 484.82 463.72 484.68C469.72 484.52 475.67 484.54 481.64 484.68C485.37 484.77 488.27 484.25 488.38 479.61C488.392 479.033 488.56 478.47 488.867 477.98C489.173 477.491 489.606 477.093 490.12 476.83Z" fill="#CCBFAD"/>
<path d="M105.84 300.8C109.97 306.31 110.84 313.01 112.35 319.42C117.8 342.95 121.73 366.71 122.16 390.94C122.16 392.27 122.16 393.6 122.09 394.94C121.88 400.94 121.88 400.94 116.09 398.85C115.435 398.682 114.765 398.578 114.09 398.54C108.09 399.04 101.8 398.05 96.09 401.03C92.46 402.33 88.88 403.87 84.87 403.25C78.43 402.76 71.72 403.44 66.17 399.03C59.17 395.67 51.7 395.1 44.08 395.51C42.3 395.6 40.43 395.84 38.75 394.87C40.81 392.14 43.87 392.87 46.55 392.87C50.08 392.87 52.74 391.64 54.55 388.76C67.4 367.93 75.26 345.87 71.49 320.83C70.88 316.83 68.78 313.46 67.93 309.62C68.2925 309.212 68.7401 308.889 69.2412 308.673C69.7423 308.457 70.2846 308.354 70.83 308.37C81.24 309.37 90.94 306.79 100.33 302.59C102.08 301.81 103.63 300.27 105.84 300.8Z" fill="#0C68A6"/>
<path d="M317.93 113.83C321.62 131.54 332.4 141.64 348.93 142.92C342.29 151.79 332.23 154.65 322.39 157.63C313.76 160.24 313.8 158.4 318.95 167.13C321.31 171.13 323.89 175.01 326.35 178.96C326.5 179.2 326.43 179.58 326.56 180.96C320.84 176.96 315.09 173.96 310.65 169.59C302.9 161.99 293.99 161.8 284.36 163.41C276.86 164.66 269.36 163.15 262 162.54C245.87 161.19 230.16 157.75 216.08 149.08C222.89 146.45 229.7 143.85 235.98 140.08C245.98 134.08 253.72 126.18 257.34 114.8C266.75 115.8 266.07 115.1 263.14 123.64C261.32 128.528 259.98 133.582 259.14 138.73C266.07 132.4 273.14 126.21 279.87 119.73C281.053 118.48 282.492 117.498 284.088 116.853C285.684 116.208 287.4 115.913 289.12 115.99C298.764 115.991 308.394 115.269 317.93 113.83Z" fill="#FEFEFE"/>
<path d="M338 374.78C335.86 371.99 336.88 369.06 337.86 366.31C342.34 353.74 347.08 341.31 351.47 328.66C353.26 323.54 354.38 318.19 355.8 312.94C360.26 310.62 362.96 306.77 364.96 302.32C367.82 301.32 370.64 301.78 373.44 302.58C374.282 302.956 375.005 303.554 375.534 304.31C376.062 305.065 376.375 305.95 376.44 306.87C376.94 310.87 379.07 310.87 381.93 309.26C385.66 307.11 389.44 305.05 392.68 302.15C394.14 300.84 395.5 299.3 397.68 299.23C398.158 299.32 398.61 299.519 399 299.81C399.353 300.14 399.635 300.538 399.83 300.98C400.46 302.89 399.63 304.54 398.92 306.23C396.77 311.34 396.79 311.36 401.97 313.3C402.749 313.56 403.442 314.031 403.97 314.66C407.45 323.31 405.97 331.91 403.69 340.5C402.47 345.15 401.26 349.8 400.16 354.5C398.92 359.74 398.54 364.85 400.98 370.04C404.74 377.99 403.92 379.13 394.98 379.94C390.66 383.24 386.04 380.74 381.55 380.6C379.744 380.4 377.974 379.952 376.29 379.27C370.95 378.27 366.04 375.58 360.5 375.39C355.21 375.58 350.01 376.59 344.74 377.01C342.17 377.19 339.82 376.88 338 374.78Z" fill="#343343"/>
<path d="M105.84 300.8C99.67 306.69 91.59 307.98 83.76 309.63C79.64 310.49 75.32 311.36 71.08 309.82C66.66 306.09 65.58 301.17 66.08 295.7C67.42 290.04 69 284.47 70 278.78C70.52 275.93 71.54 275.55 74 276.5C78.59 278.29 83.24 279.91 88 281.3C83.964 278.619 79.661 276.364 75.16 274.57C70.25 272.5 66.78 269.57 65.71 263.57C64.5177 256.381 64.0021 249.095 64.17 241.81C68.29 236.98 74.35 235.89 79.83 233.68C81.088 233.849 82.2877 234.315 83.33 235.04C87.99 237.6 88 237.6 89.93 232.78C91.41 229.14 93.43 231.51 95.05 232.48C103.17 237.34 111.2 242.36 119.29 247.27C125.06 250.78 125.87 250.61 128.16 244.42C130.34 238.51 132.03 232.42 134.07 226.42C134.67 224.66 134.55 222.29 137.07 221.72C140.32 220.35 142.07 221.72 142.96 224.86C143.73 225.6 144.269 226.548 144.51 227.588C144.752 228.628 144.686 229.716 144.32 230.72C142.11 238.21 140.32 245.81 137.12 253C133.84 260.46 130.58 262.15 122.57 260.42C117.271 259.198 112.123 257.393 107.22 255.04C105.9 256.22 106.9 256.98 107.41 257.72C109.75 261.15 109.62 263.83 105.41 265.72C104.073 266.393 102.878 267.316 101.89 268.44C98.69 271.78 99.33 274.89 103.7 276.49C111.04 279.17 118.47 281.62 125.85 284.21C127.68 284.85 129.85 285.12 130.05 287.77C131.23 290.65 130.79 293.03 127.98 294.71C126.87 296.31 125.68 296.52 123.79 295.71C118.19 293.23 112.44 291.11 106.79 288.71C103.73 287.38 102.55 288.5 103.12 291.4C103.79 294.52 104.93 297.64 105.84 300.8Z" fill="#FEFEFE"/>
<path d="M281.08 276.5C275.79 266.16 270.93 255.6 265.9 245.13C265 242.45 262.64 242.13 260.36 241.74C253.57 240.48 246.6 240.23 240 237.92C239.23 237.593 238.38 237.505 237.56 237.667C236.74 237.829 235.987 238.235 235.4 238.83C233.95 240.83 233.9 243.24 234.06 245.55C234.95 258.3 235.01 271.15 238.64 283.55C240.85 291.07 242.72 298.63 242.08 306.55C241.9 308.72 242.23 310.91 244.08 312.48C245.649 315.134 247.851 317.357 250.49 318.95C251.99 319.78 253.97 320.15 254.08 322.44C256.82 324.53 259.71 326.32 263.28 326.58L266 323.84C271.12 312.3 276.17 300.74 281.39 289.24C282.381 287.252 282.871 285.052 282.817 282.831C282.763 280.611 282.167 278.437 281.08 276.5ZM266.23 293.96C264.14 286.45 262.47 279.77 262.91 272.5C269.85 278.61 270.75 283.84 266.23 293.96Z" fill="#0B6AA9"/>
<path d="M227.22 309.63C227.152 311.092 226.988 312.549 226.73 313.99C225.35 319.6 220.64 321.37 215.87 318.18C214.93 317.56 213.87 317.04 212.94 316.47C208.12 306.68 209.56 296.32 210.48 286.11C211.18 278.35 212.73 270.68 213.82 262.95C214.05 261.36 214.46 259.62 212.82 258.04C209.82 260.68 208.28 264.4 205.93 267.47C202.69 271.71 199.56 276.02 195.3 279.32C190.1 283.32 186.3 282.78 182.89 277.19C177.43 268.34 176.13 258.19 174.18 248.25C173.6 245.32 173.72 242.25 172.8 239.42C171.6 235.81 172.8 233.32 175.24 230.98C175.619 229.753 176.41 228.694 177.48 227.984C178.549 227.273 179.832 226.954 181.11 227.08C184.55 225.97 184.57 228.8 185 230.71C186.84 238.8 188.42 246.95 190.32 255.03C190.69 256.62 190.63 259.29 192.79 259.34C194.45 259.39 194.79 256.95 195.49 255.49C199.62 246.96 203.49 238.28 210.49 231.56C214.034 228.057 218.172 225.209 222.71 223.15C224.03 226.15 222.83 228.84 223.3 231.43C223.9 232.013 224.363 232.721 224.655 233.505C224.947 234.288 225.062 235.127 224.99 235.96C224.28 245.39 227.04 254.35 228.59 263.48C228.959 265.099 229.101 266.762 229.01 268.42C227.83 279.96 227.83 291.59 229.01 303.13C229.24 305.45 229 307.8 227.22 309.63Z" fill="#0B6AA9"/>
<path d="M397.91 300.04C393.071 304.491 387.656 308.271 381.81 311.28C376.52 313.95 375.42 313.28 374.9 307.28C374.73 306.153 374.49 305.037 374.18 303.94C372.07 300.33 371.98 296.33 372.1 292.36C372.387 286.398 371.553 280.434 369.64 274.78C368.452 271.58 367.928 268.171 368.1 264.762C368.272 261.353 369.136 258.014 370.64 254.95C372.64 250.75 373.81 246.25 375.54 241.95C375.938 240.628 376.692 239.442 377.72 238.52C378.245 238.263 378.828 238.143 379.412 238.173C379.996 238.203 380.563 238.381 381.06 238.69C385.54 241.69 391.06 239.84 395.76 242.04C399.67 246.84 405.11 249.94 409.4 254.32C426.49 271.75 425.4 269.52 415.29 289.73C412.69 294.92 409.61 299.86 406.74 304.91C402.87 305.91 400.74 303.51 398.89 300.74L398.96 300.82C398.56 297.19 399.96 294.01 401.48 290.88C403.785 286.444 405.692 281.813 407.18 277.04C408.54 272.43 403.18 264.53 398.42 263.82C396.23 263.49 395.29 264.98 394.77 266.51C391.77 275.22 389.86 283.86 396.32 292.1C398.06 294.29 400.51 296.75 397.91 300.04Z" fill="#0A67A7"/>
<path d="M68.08 309.87C70.51 310.97 71.7 312.73 72.3 315.46C75.3099 329.19 74.78 343.461 70.76 356.93C67.8148 366.74 63.8743 376.222 59 385.23C55.66 391.64 51.83 396.23 43.77 394.74C42.1038 394.6 40.4274 394.64 38.77 394.86C37.94 394.86 37.1112 394.8 36.29 394.68C30.63 393.44 30.22 392.35 33.76 387.8C46.8 371.04 53.59 351.72 57.12 331.04C58.21 324.59 59.75 318.22 61 311.79C61.32 310.14 61.64 308.58 63.16 307.58C64.0817 307.216 65.1101 307.233 66.0194 307.627C66.9288 308.02 67.6447 308.759 68.01 309.68C68 309.75 68.06 309.81 68.08 309.87Z" fill="#09619D"/>
<path d="M365.05 302.77C364.57 310.57 362.94 312.36 355.82 312.94C355.62 312.68 355.22 312.4 355.25 312.17C356.69 299.87 352.61 288.55 349.07 277.17C347.07 270.79 347.53 264.48 349.16 258.05C350.79 251.62 349.78 250.77 343.08 252.36C337.44 253.69 331.78 254.99 326.15 256.36C322.07 257.36 318.5 256.17 316.65 252.67C310.14 240.33 309.47 227.15 311.98 213.67C314.76 211.45 316.98 212.74 318.98 214.82C320.73 216.21 320.81 218.15 320.98 220.19C321.53 226.46 322.29 232.72 322.92 238.99C323.29 242.72 324.79 244.12 328.85 243.13C337.53 241.01 346.13 238.47 355.05 237.35C358.683 236.919 362.343 236.748 366 236.84C366.357 237.083 366.659 237.398 366.886 237.765C367.114 238.132 367.262 238.542 367.32 238.97C366.78 246.45 365.75 253.77 361.85 260.45C359.08 265.18 359.45 270.37 360.78 275.45C362.58 282.37 364.9 289.16 366.06 296.24C366.45 298.51 367.15 300.87 365.05 302.77Z" fill="#0B67A6"/>
<path d="M338 374.78C343.78 375.91 349.39 374.35 355.07 373.78C357.032 373.68 358.998 373.68 360.96 373.78C362.37 376.64 360.78 378.97 359.46 381.23C357.236 385.133 355.604 389.346 354.62 393.73C349.79 413.95 345.33 434.26 340.62 454.5C339.62 458.84 339.21 463.41 336.54 467.24C332.499 470.524 327.447 472.308 322.24 472.29C319.96 472.29 316.96 472.43 317.24 468.58C329.82 461.65 327.24 448.82 328.85 437.85C331.3 420.71 332.85 403.43 334.97 386.25C335.49 382.39 337 378.61 338 374.78Z" fill="#EEAEA5"/>
<path d="M376 377.77C382.34 378.52 388.6 379.94 395 379.91C394.66 383.54 394.36 387.17 394 390.79C391.81 411.22 395.77 431.53 395.22 451.95C395.11 455.83 396.01 459.85 396.07 463.84C395.24 470.93 390.52 475.14 384.75 478.18C382.08 479.59 379.54 478.54 379.27 474.84C379.28 474.171 379.481 473.518 379.85 472.96C385.98 466.05 384.46 458.55 382.33 450.54C376.643 429.222 373.868 407.232 374.08 385.17C374.08 382.58 373.61 379.78 376 377.77Z" fill="#EEAEA5"/>
<path d="M395.8 242.04C389.43 244.13 383.7 242.71 378.42 238.87C373.05 236.76 371.52 231.61 370.5 227.01C369.24 221.27 365.02 218.01 362.07 213.62C360.13 209.12 361.26 206.25 365.59 204.69C368.521 203.725 371.677 203.688 374.63 204.583C377.583 205.477 380.188 207.261 382.09 209.69C383.701 211.793 385.082 214.063 386.21 216.46C387.61 219.39 389.35 220.55 392.83 219.98C394.989 219.613 397.209 219.892 399.21 220.781C401.211 221.671 402.906 223.131 404.08 224.98C406.41 228.45 409.22 229.14 412.94 228.91C419.647 228.444 426.274 230.595 431.43 234.91C433.33 236.45 435.54 238.32 434.13 241.18C432.72 244.04 430.13 242.42 428.03 241.9C424.34 240.99 420.8 239.35 416.88 239.68C415.558 239.691 414.242 239.859 412.96 240.18C405.51 242.65 402.5 243.04 395.8 242.04Z" fill="#393A4F"/>
<path d="M79.83 234.51C74.8753 237.533 69.5909 239.979 64.08 241.8C56.52 242.92 48.99 244.54 41.3 242.86C39.6671 242.572 38.0615 242.147 36.5 241.59C33.77 240.48 33.03 238.59 34.99 236.12C37.33 233.2 39.94 230.67 44.08 230.81C46.23 230.88 48.29 230.72 48.08 227.81C47.72 223.06 50.51 220.81 54.63 220.81C63.21 220.95 67.29 216.81 69.77 208.81C72 201.59 77.34 199.51 84.95 200.81C88.95 201.49 92.16 203.34 93.03 207.81C92.5 211.2 91.33 214.22 87.82 215.57C86.27 216.16 85.94 217.08 86.17 218.63C86.66 221.95 85.95 225.24 85.38 228.48C84.82 231.45 83.49 234.11 79.83 234.51Z" fill="#1E1F3B"/>
<path d="M95.93 399.43C101.85 396.29 107.93 395.68 114.1 398.53C113.75 412.41 115.84 426.12 116.85 439.91C117.47 448.3 118.41 456.68 118.85 465.05C119.12 470.86 121.53 473.05 126.63 473.78C127.591 474.008 128.524 474.344 129.41 474.78C126.63 478.3 121.34 479.61 116.01 477.72C112.673 476.682 109.555 475.042 106.81 472.88C103.81 450.38 97.59 428.48 94.56 405.98C94.2 403.64 94.28 401.37 95.93 399.43Z" fill="#F5B0B3"/>
<path d="M227.22 309.63C227.07 297.19 225.22 284.79 226.83 272.32C227.65 265.98 226.22 259.72 224.6 253.63C222.62 246.402 222.18 238.839 223.31 231.43C225.23 228.76 222.92 225.24 225.06 222.61C227.24 222.34 227.22 224.72 228.54 225.49C231.87 229.29 235.85 232.71 236.22 238.29C236 257.29 237.81 275.96 243.45 294.22C245.27 300.12 243.9 306.42 244.08 312.53C238.24 312.87 232.73 311.27 227.22 309.63Z" fill="#FCFDFC"/>
<path d="M66.18 399.04L85.11 401.84C87.11 404.11 85.99 406.59 85.49 408.97C82.55 422.78 78.65 436.36 75.64 450.16C73.97 457.79 71.57 465.32 75.64 472.93C75.797 473.318 75.871 473.735 75.8572 474.154C75.8434 474.572 75.7422 474.983 75.56 475.36C72.81 477.93 70.15 476.22 67.99 474.71C63.21 471.37 60.76 466.48 60.13 460.71C63.5 453.05 63.85 444.77 65.05 436.71C66.93 424.14 65.67 411.55 66.18 399.04Z" fill="#F4B1B4"/>
<path d="M236.22 238.29C232.75 234.72 231.56 229.29 226.99 226.63C225.8 223.34 227.51 222.55 230.35 222.73C234.21 223.99 235.08 228.45 238.43 230.26C241.31 233.07 244.8 233.89 248.75 233.85C252.7 233.81 256.98 233.05 260.6 235.72C268.69 236.27 274.22 240.6 278.99 246.98C285.47 255.62 295.18 258.09 305.44 258.83C309.44 259.11 313.44 259.05 317.23 260.49C318.99 261.16 321.45 261.96 320.97 264.49C320.49 267.02 318.27 267.77 315.97 267.7C308.77 267.51 301.97 265.19 294.91 263.98C286.21 262.48 279.82 257.52 274.06 251.25C271.77 248.75 269.76 245.65 265.91 245.14C262.09 243.33 257.91 243.33 253.84 242.78C247.77 241.96 241.71 241.27 236.22 238.29Z" fill="#F0AC1F"/>
<path d="M262.06 480.66C261.77 485.49 259.46 487.31 254.42 487.08C247.17 486.74 239.89 487.37 232.62 487.38C227.72 487.38 226.71 485.65 228.36 480.85C229.19 479.14 230.89 478.85 232.47 478.43C237.78 477.05 242.99 475.63 246.41 470.72C247.67 468.92 249.95 469.13 251.92 469.22C253.89 469.31 255.86 468.79 257.83 468.69C258.642 468.763 259.412 469.088 260.03 469.62C263.9 472.71 261 477.04 262.06 480.66Z" fill="#201F3A"/>
<path d="M522.28 208.62C519.75 204.84 520.65 200.68 524.48 198.46C524.75 198.3 525.03 198.15 525.31 198.02C528.31 202.6 531.7 198.3 534.87 198.56C535.197 198.585 535.516 198.673 535.81 198.82C540.45 201.04 543.5 210.76 540.56 214.93C538.26 218.19 539.38 222.48 536.79 225.51C533.3 228.51 529.41 227.51 528.6 222.78C527.93 218.78 526.81 215.55 523.99 212.69C522.976 211.566 522.373 210.131 522.28 208.62Z" fill="#6D3623"/>
<path d="M547 482.92C543.44 484.16 539.84 485.29 536.34 486.67C532.2 488.29 529.61 487.4 529.02 482.67C529.071 481.828 529.386 481.024 529.921 480.372C530.456 479.72 531.184 479.254 532 479.04C537.59 476.91 542.32 473.45 546.92 469.74C547.032 468.906 547.455 468.145 548.104 467.609C548.753 467.073 549.58 466.802 550.42 466.85C553.79 466.74 556.79 465.25 560 464.62C560.689 465.551 561.311 466.53 561.86 467.55C565.39 475.26 564.86 476.55 556.86 479.4L547 482.92Z" fill="#1F203B"/>
<path d="M217.24 475.68C216.49 488.47 218.04 486.79 205.24 486.91C199.61 486.96 193.97 486.77 188.34 486.98C184.34 487.13 182.23 485.98 182.93 481.63C184.06 480.3 185.68 480.81 187.1 480.53C192.77 479.36 199.23 479.78 201.98 472.85C202.2 472.29 203.34 472.1 204.06 471.74C208.15 472.5 212.06 470.86 216.06 470.81C218.24 472.04 218.66 473.61 217.24 475.68Z" fill="#1E1E3A"/>
<path d="M490.12 476.83C490.49 486.92 490.49 486.92 480.75 486.83C473.75 486.78 466.75 486.64 459.75 486.72C456.14 486.77 453.95 485.6 454 481.67C455.2 479.18 457.51 479.81 459.59 479.59C464.92 479.02 470.59 479.5 475.05 475.66C475.98 475.09 476.42 473.46 477.79 473.91C481.85 475.25 486.28 474.77 490.12 476.83Z" fill="#212139"/>
<path d="M379.81 475.88C382.44 479.56 384.81 476.8 386.86 475.33C390.96 472.4 393.21 467.85 396.05 463.84C400.21 466.76 401.33 470.67 399.8 475.43C399 477.406 398.731 479.558 399.02 481.67C398.75 482.89 398.48 484.1 398.23 485.21C396.89 485.32 396.98 484.49 396.84 483.93C396.26 481.61 397.32 478.1 394.78 477.28C392.48 476.54 390.78 479.61 388.83 481.09C384.67 484.33 380.83 487.9 375.18 488.57C368.82 489.33 367.8 488.11 370.11 481.9C372.12 477.92 375 475.26 379.81 475.88Z" fill="#0E6AA8"/>
<path d="M107.13 472.61C109.01 473.09 111.24 473.07 112.71 474.13C118.22 478.13 123.71 477.06 129.37 474.81C133.68 475.89 139.32 474.32 141.04 480.61C136.58 485.16 130.88 485.11 125.21 484.61C120.78 484.21 116.55 483.72 111.99 484.61C105.4 485.84 104.99 485.02 104.9 477.7C103.87 475.19 104 473.24 107.13 472.61Z" fill="#1F1D38"/>
<path d="M362.07 213.6C364.4 213.72 366.24 214.6 366.95 217C367.55 219 367.68 221.53 370.69 218.73C371.41 218.05 372.82 219.39 372.4 220.32C369.08 227.67 374.92 232.14 377.66 237.58C377.88 238.02 378.16 238.43 378.42 238.85L377.14 241.49C375.14 243.21 374.93 245.81 374.06 248.06C373.45 249.65 372.95 251.32 370.92 251.31C368.89 251.3 368.13 249.84 367.35 248.31C365.77 245.24 366.61 241.91 366.24 238.71C366.17 238.07 366.09 237.43 366.02 236.79C367.89 233.89 370.31 230.79 363.72 231.49C363.383 231.545 363.038 231.521 362.712 231.42C362.387 231.319 362.088 231.144 361.841 230.908C361.594 230.673 361.405 230.384 361.289 230.063C361.172 229.742 361.132 229.399 361.17 229.06C361.41 224.7 358.39 220.06 362.07 215.93C362.46 215.51 362.09 214.4 362.07 213.6Z" fill="#F3B1B4"/>
<path d="M60.1599 460.66C61.5699 462.24 63.2099 463.73 63.6799 465.87C65.0199 472.07 69.3599 474.61 75.0899 475.58C79.5899 475.92 81.7299 478.81 82.8699 482.77C83.3299 485.64 81.4499 485.98 79.3299 486.01C75.3299 486.08 71.7899 484.39 68.3299 482.61C64.7999 479.09 61.7099 475.36 56.6999 473.28C50.5499 470.73 50.6999 466.66 56.3099 462.75C57.5516 461.979 58.8371 461.281 60.1599 460.66Z" fill="#1E1D37"/>
<path d="M260.6 235.72C256.15 235.87 251.69 236.13 247.24 236.15C245.17 236.197 243.12 235.741 241.265 234.821C239.41 233.902 237.806 232.546 236.59 230.87C235.27 226.81 233.49 222.72 237.18 218.87C248.42 219.72 256.29 225.25 260.6 235.72Z" fill="#0B6AA7"/>
<path d="M317.27 468.62C319.01 471.99 322.04 470.73 324.6 470.45C328.71 470.01 332.28 467.8 336.06 466.28C339.65 469.47 339.21 474.7 335.06 477.97C333.85 478.861 332.462 479.478 330.99 479.78L328.32 483.11C327.86 483.69 327.51 484.83 326.6 484.26C325.53 483.59 326.78 482.56 326.6 481.67C327.92 480.12 329.38 478.03 328.45 476.39C327.52 474.75 325.14 476.08 323.39 476.21C317.15 476.68 310.83 478.05 304.99 474.42C303.76 473.65 301.99 473.14 302.33 471.27C302.456 470.514 302.812 469.815 303.348 469.268C303.885 468.72 304.577 468.351 305.33 468.21C309.32 467.46 313.38 466.19 317.27 468.62Z" fill="#0F6AA7"/>
<path d="M222 198.97C219.9 197.97 218.17 196.73 219 194.07C219.83 191.41 222.61 193.21 223.8 192.49C228.19 189.81 232.1 192.9 236.2 192.75C236.853 192.661 237.518 192.757 238.119 193.028C238.72 193.298 239.233 193.732 239.6 194.28C241.385 197.036 242.002 200.387 241.315 203.598C240.629 206.808 238.695 209.615 235.94 211.4C235.63 211.6 235.32 211.78 235 211.95C229.69 208.63 224.86 204.81 222 198.97Z" fill="#191A39"/>
<path d="M222 198.97C224.9 199.75 225.65 203.75 229.47 203.66C230.47 203.66 227.97 205.83 228.47 207.44C228.62 207.52 229.02 207.89 229.16 207.81C234.37 204.59 234.55 208.5 235.04 211.95C233.04 214.47 236.04 216.31 235.94 218.58C235.859 219.9 235.312 221.149 234.396 222.103C233.481 223.057 232.256 223.655 230.94 223.79C228.6 223.32 227.13 224.04 227.02 226.63L225.09 222.63C219.4 215.33 217.11 207.61 222 198.97Z" fill="#EBADA5"/>
<path d="M79.83 234.51C84.89 229.12 86.53 223.13 83.04 216.24C82.33 214.83 82.93 213.55 84.26 213.88C89.7 215.21 90.63 210.5 93.01 207.73C95.46 211.27 96.68 215.33 97.76 219.41C98.45 222.03 98.24 224.28 94.67 224.76C89.98 225.38 89.04 227.13 89.93 232.76C89.81 234.99 92.51 237.65 90.19 239.26C87.87 240.87 85.63 238.26 83.54 237.07C82.25 236.29 81.07 235.36 79.83 234.51Z" fill="#F2B0B4"/>
<path d="M522.28 208.62C524.14 209.37 526.05 210.05 525.62 212.7C525.43 213.9 526.11 214.79 527.23 214.59C531.63 213.79 531.39 215.4 529.66 218.53C528.26 221.07 529.97 223.26 531.48 225.18C532.99 227.1 534.95 226.49 536.79 225.51C536.47 227.12 536.16 228.72 535.84 230.33L524.06 229.68C524.06 228.08 525.96 225.34 521.79 226.45C520 226.92 519.09 225.45 519.03 223.71C518.85 218.42 518.35 213.04 522.28 208.62Z" fill="#EBADA3"/>
<path d="M181.07 227.04C179.366 228.683 177.377 230.001 175.2 230.93C171.49 226.51 168.34 221.56 162.91 218.82C161.61 218.17 159.78 216.96 160.7 214.9C161.62 212.84 163.42 212.6 165.35 212.75C170.22 213.11 173.96 216.97 178.95 217.15C180 217.15 180.09 218.7 180.01 219.67C179.81 222.26 180.64 224.64 181.07 227.04Z" fill="#EEAEA6"/>
<path d="M508.85 260.89C513.85 262.08 516.66 264.79 515.99 270.35C514.78 280.44 514.99 290.85 508.71 299.68C510.61 286.76 510.1 273.83 508.85 260.89Z" fill="#0E5586"/>
<path d="M452.89 226.83L446.03 230.83C445.5 229.098 444.8 227.423 443.94 225.83C441.45 222.11 438.94 218.83 445.67 216.67C447.72 216.03 447.01 213.52 446.76 211.77C446.51 210.02 445.25 208.37 447.25 206.43C452.07 212.52 449.66 220.51 452.89 226.83Z" fill="#EBB0A6"/>
<path d="M398.93 300.72C402.02 301.22 403.6 304.56 406.79 304.89L406.2 305.64C411.92 310.22 406.1 311.99 404.02 314.64C403.2 314.7 402.39 314.81 401.57 314.8C395.9 314.8 394.14 312.03 396.57 306.97C397.55 304.97 399.37 303.27 398.93 300.72Z" fill="#EBACA6"/>
<path d="M319 214.79L312 213.64C310.9 209.71 307.63 207.58 304.85 205.03C304.15 204.39 303.08 203.64 303.65 202.57C304.22 201.5 305.36 202.02 306.29 202.33C310.47 203.73 313.83 207.14 318.63 207.11C320.05 207.11 319.97 208.74 319.8 209.92L319 214.79Z" fill="#EBB2A9"/>
<path d="M143 224.83C141.11 223.64 139.39 222.14 137.11 221.69C136.62 218.97 138.03 216.87 139.64 215.03C141.25 213.19 143.64 212.09 146.27 213.44C149.53 215.14 147.12 217.09 146.2 218.7C145 220.71 146.18 223.92 143 224.83Z" fill="#F4B2B4"/>
<path d="M128 294.67L130.07 287.73C133.67 286.14 136.34 290.46 140.07 289.28C141.07 288.97 140.75 291 140.18 292.07C137.9 296.36 133.21 297.38 128 294.67Z" fill="#F2B4B4"/>
<path d="M68.08 309.87L63.16 307.56C62.51 303.22 64.51 299.56 66.03 295.7C67.71 300.4 69.3767 305.107 71.03 309.82L68.08 309.87Z" fill="#E9E9EA"/>
<path d="M230.91 223.79C232.199 221.727 233.902 219.953 235.91 218.58L237.16 218.91C236.96 222.91 236.763 226.91 236.57 230.91C233.85 229.19 232.45 226.43 230.91 223.79Z" fill="#EEF4F0"/>
<path d="M260 469.62L258.12 469.81C256.03 470.51 253.87 470.07 251.75 470.15C250.28 470.2 248.49 470.38 248.46 468.21C248.43 466.04 250.14 466.21 251.67 466.21C252.16 466.258 252.641 466.372 253.1 466.55L260.93 465.5L260 469.62Z" fill="#FBFBF9"/>
<path d="M215.11 471.53C211.44 472.8 207.78 474.47 204.04 471.74C205.91 469.55 208.88 471.65 210.89 470L216.02 468.67C217.1 470.04 216.37 470.88 215.11 471.53Z" fill="#E4E4E8"/>
<path d="M254.08 322.49C257.15 323.87 260.21 325.26 263.28 326.63C259.15 327.63 256.24 325.9 254.08 322.49Z" fill="#968FA8"/>
<path d="M366.24 238.73C367.18 241.89 368.11 245.05 369.07 248.2C369.36 249.2 369.74 250.2 370.86 250.36C372.36 250.52 372.55 249.17 373.1 248.14C374.33 245.86 373.57 242.35 377.1 241.49C376.04 246.36 374.429 251.094 372.3 255.6C369.2 262.02 369.3 268.39 371.67 274.89C375.13 284.34 374.3 294.15 374.14 303.89C371.03 304.01 367.92 304.17 365.01 302.75C364.68 294.38 362.1 286.48 359.59 278.63C357.08 270.78 356.84 263.51 361.59 256.35C365.18 251.11 364.58 244.58 366.24 238.73Z" fill="#FCFDFC"/>
<path d="M92.2301 270.92C79.34 264.29 78.5 263.31 79.81 255.92C81.79 263.41 87.5601 266.65 92.2301 270.92Z" fill="#DFDFDF"/>
</svg>
